<svg width="924" height="380" viewBox="0 0 924 380" fill="none" xmlns="http://www.w3.org/2000/svg">
<g clip-path="url(#clip0_63_34)">
<path d="M169.125 49.3588C158.306 62.1608 140.996 72.2581 123.687 70.8156C121.523 53.5059 129.998 35.1144 139.915 23.7549C150.733 10.5923 169.666 1.21623 184.992 0.494995C186.795 18.5259 179.763 36.1962 169.125 49.3588ZM184.812 74.2415C159.749 72.799 138.292 88.4859 126.391 88.4859C114.311 88.4859 96.0994 74.9627 76.2654 75.3233C50.4811 75.6839 26.5 90.289 13.3374 113.549C-13.709 160.069 6.30537 228.947 32.4502 266.812C45.2522 285.564 60.5785 306.119 80.7731 305.398C99.8859 304.677 107.459 292.957 130.538 292.957C153.798 292.957 160.47 305.398 180.664 305.037C201.58 304.677 214.743 286.285 227.545 267.533C242.15 246.256 248.1 225.521 248.461 224.439C248.1 224.078 208.071 208.752 207.711 162.593C207.35 124.007 239.265 105.615 240.707 104.533C222.676 77.8477 194.548 74.9627 184.812 74.2415ZM329.6 21.9518V303.054H373.235V206.949H433.638C488.813 206.949 527.579 169.084 527.579 114.27C527.579 59.4561 489.534 21.9518 435.081 21.9518H329.6ZM373.235 58.7349H423.541C461.406 58.7349 483.043 78.9295 483.043 114.45C483.043 149.971 461.406 170.346 423.361 170.346H373.235V58.7349ZM607.276 305.218C634.683 305.218 660.107 291.334 671.646 269.336H672.548V303.054H712.937V163.134C712.937 122.564 680.482 96.4195 630.536 96.4195C584.196 96.4195 549.938 122.925 548.676 159.347H587.983C591.229 142.038 607.276 130.678 629.274 130.678C655.96 130.678 670.925 143.12 670.925 166.019V181.525L616.472 184.771C565.805 187.836 538.398 208.572 538.398 244.634C538.398 281.056 566.706 305.218 607.276 305.218ZM618.996 271.86C595.736 271.86 580.951 260.681 580.951 243.552C580.951 225.882 595.195 215.604 622.422 213.981L670.925 210.916V226.783C670.925 253.108 648.567 271.86 618.996 271.86ZM766.85 379.505C809.403 379.505 829.417 363.277 846.907 314.053L923.538 99.1241H879.182L827.794 265.189H826.893L775.505 99.1241H729.886L803.813 303.775L799.846 316.216C793.175 337.313 782.356 345.427 763.063 345.427C759.637 345.427 752.966 345.066 750.261 344.705V378.423C752.786 379.144 763.604 379.505 766.85 379.505Z" fill="black"/>
</g>
<defs>
<clipPath id="clip0_63_34">
<rect width="924" height="380" fill="white"/>
</clipPath>
</defs>
</svg>
