<svg width="27" height="27" viewBox="0 0 27 27" fill="none" xmlns="http://www.w3.org/2000/svg">
<path d="M4.72501 20.3322C4.72501 20.3322 4.61589 21.1815 4.72501 21.5854C4.80095 21.8655 4.87351 22.3375 5.16376 22.3375H6.79333C7.08358 22.3375 7.15614 21.8655 7.23208 21.5854C7.3412 21.1821 7.23208 20.3322 7.23208 20.3322" stroke="#DE0101" stroke-linecap="round" stroke-linejoin="round"/>
<path d="M21.9617 12.1837H5.03831C3.6537 12.1837 2.53125 13.3062 2.53125 14.6908V17.825C2.53125 19.2096 3.6537 20.3321 5.03831 20.3321H21.9617C23.3463 20.3321 24.4688 19.2096 24.4688 17.825V14.6908C24.4688 13.3062 23.3463 12.1837 21.9617 12.1837Z" stroke="#DE0101" stroke-linecap="round" stroke-linejoin="round"/>
<path d="M19.768 20.3322C19.768 20.3322 19.6589 21.1815 19.768 21.5854C19.8439 21.8655 19.9165 22.3375 20.2067 22.3375H21.8363C22.1265 22.3375 22.1991 21.8655 22.275 21.5854C22.3842 21.1821 22.275 20.3322 22.275 20.3322" stroke="#DE0101" stroke-linecap="round" stroke-linejoin="round"/>
<path d="M5.97879 17.825C6.67125 17.825 7.2326 17.2637 7.2326 16.5712C7.2326 15.8787 6.67125 15.3174 5.97879 15.3174C5.28633 15.3174 4.72498 15.8787 4.72498 16.5712C4.72498 17.2637 5.28633 17.825 5.97879 17.825Z" stroke="#DE0101" stroke-linecap="round" stroke-linejoin="round"/>
<path d="M5.03833 12.1837L6.48002 6.54242C6.72639 5.57886 7.80358 4.66199 8.79921 4.66199H18.2008C19.1965 4.66199 20.2736 5.57886 20.52 6.54242L21.9617 12.1837" stroke="#DE0101" stroke-linecap="round" stroke-linejoin="round"/>
<path d="M21.0211 17.825C21.7136 17.825 22.275 17.2637 22.275 16.5712C22.275 15.8787 21.7136 15.3174 21.0211 15.3174C20.3287 15.3174 19.7673 15.8787 19.7673 16.5712C19.7673 17.2637 20.3287 17.825 21.0211 17.825Z" stroke="#DE0101" stroke-linecap="round" stroke-linejoin="round"/>
</svg>
