<svg xmlns="http://www.w3.org/2000/svg" version="1.1" xmlns:xlink="http://www.w3.org/1999/xlink" width="512" height="512" x="0" y="0" viewBox="0 0 512 512" style="enable-background:new 0 0 512 512" xml:space="preserve" class=""><g><circle cx="256" cy="256" r="256" fill="#ED755B" opacity="1" data-original="#ed755b" class=""></circle><path fill="#E64D2E" d="m381.653 130.24-5.883 5.883-60.251-60.251-15.765 15.765-24.706-24.706-22.941 22.941-19.059-19.059-23.088 23.089-14.588-14.588L81.398 193.288l13.657 13.657L46 256l44.696 44.696-15.412 15.412 60.251 60.251-5.294 5.294-12.18 12.18 117.341 117.341c6.796.541 13.663.826 20.598.826 141.385 0 256-114.615 256-256 0-6.935-.285-13.803-.827-20.599l-117.34-117.34z" opacity="1" data-original="#e64d2e" class=""></path><path fill="#FFDD33" d="M61 256h30c0-44.073 17.163-85.508 48.327-116.673C170.492 108.163 211.927 91 256 91l10.176-16L256 61C148.304 61 61 148.304 61 256z" opacity="1" data-original="#ffdd33" class=""></path><path fill="#C3DDF7" d="M139.327 372.673C108.163 341.508 91 300.073 91 256h15l-30-40-30 40h15c0 107.696 87.304 195 195 195l10.176-15.529L256 421c-44.073 0-85.508-17.163-116.673-48.327z" opacity="1" data-original="#c3ddf7" class=""></path><path fill="#9EC9F3" d="M451 256h-30c0 44.073-17.163 85.508-48.327 116.673C341.508 403.837 300.073 421 256 421v30c107.696 0 195-87.304 195-195z" opacity="1" data-original="#9ec9f3"></path><path fill="#F3BD44" d="M451 256c0-107.696-87.304-195-195-195v30c44.073 0 85.508 17.163 116.673 48.327C403.837 170.492 421 211.927 421 256h-15l30 40 30-40z" opacity="1" data-original="#f3bd44"></path><path fill="#2B2B2B" d="M309.728 174.288h25v180h-25zM265.576 214.288h25v140h-25z" opacity="1" data-original="#2b2b2b"></path><g fill="#4F4F4F"><path d="M221.424 254.288h25v100h-25zM177.272 284.288h25v70h-25z" fill="#4F4F4F" opacity="1" data-original="#4f4f4f"></path></g><path fill="#FFFFFF" d="M151 346v15h105l4.532-7.5L256 346z" opacity="1" data-original="#ffffff" class=""></path><path fill="#EAEDF4" d="M256 346h105v15H256z" opacity="1" data-original="#eaedf4"></path><path fill="#FFFFFF" d="m171.969 248.984 10.607 10.608L256 186.167l5.681-14.827-5.681-6.388z" opacity="1" data-original="#ffffff" class=""></path><path fill="#EAEDF4" d="m294.46 173.063 15.268-15.268v-35.963h-35.963L258.497 137.1l25.362-.007L256 164.952v21.215l38.467-38.467z" opacity="1" data-original="#eaedf4"></path></g></svg>