<svg xmlns="http://www.w3.org/2000/svg" version="1.1" xmlns:xlink="http://www.w3.org/1999/xlink" width="512" height="512" x="0" y="0" viewBox="0 0 512 512" style="enable-background:new 0 0 512 512" xml:space="preserve" class=""><g><g fill-rule="evenodd" clip-rule="evenodd"><path fill="#FC685B" d="M360.151 200.821c19.12-6.619 27.88-33.579 16.303-50.173-4.871-6.981-4.872-15.823-.001-22.804 11.578-16.594 2.819-43.554-16.301-50.174-8.044-2.785-13.242-9.937-13.405-18.448-.386-20.231-23.32-36.893-42.68-31.01-8.145 2.475-16.554-.256-21.688-7.046-12.203-16.14-40.551-16.14-52.756-.001-5.134 6.79-13.543 9.523-21.688 7.048-19.36-5.884-42.294 10.778-42.682 31.008-.163 8.511-5.359 15.665-13.403 18.45-19.121 6.619-27.881 33.579-16.304 50.174 4.871 6.981 4.872 15.823.001 22.804-11.579 16.594-2.819 43.555 16.301 50.175 8.044 2.785 13.242 9.938 13.404 18.448.387 20.23 23.32 36.893 42.68 31.01 8.145-2.475 16.554.256 21.688 7.046 12.204 16.14 40.552 16.14 52.757.001 5.134-6.79 13.543-9.522 21.688-7.047 19.36 5.884 42.294-10.779 42.681-31.009.163-8.514 5.36-15.667 13.405-18.452z" opacity="1" data-original="#fc685b"></path><path fill="#F35244" d="M360.151 200.821c19.12-6.62 27.88-33.579 16.303-50.174-4.871-6.981-4.872-15.823-.001-22.804 10.577-15.159 4.179-38.967-11.584-48.018 5.556 10.792 5.94 24.495-1.013 34.46-4.871 6.981-4.87 15.823.001 22.804 11.577 16.594 2.817 43.554-16.303 50.173-8.045 2.785-13.242 9.938-13.404 18.449-.387 20.23-23.321 36.893-42.681 31.009-8.145-2.476-16.553.257-21.687 7.047-12.205 16.139-40.553 16.139-52.757-.001-5.134-6.79-13.544-9.521-21.688-7.046-8.986 2.731-18.74.602-26.654-4.484 7.16 13.649 24.274 22.593 39.251 18.042 8.145-2.475 16.555.256 21.689 7.046 12.204 16.14 40.552 16.14 52.756.001 5.134-6.79 13.543-9.522 21.688-7.047 19.36 5.883 42.294-10.779 42.681-31.009.161-8.51 5.358-15.663 13.403-18.448zM347.41 64.06a20.63 20.63 0 0 1-.664-4.84c-.207-10.84-6.889-20.654-16.025-26.526 2.095 3.993 3.341 8.389 3.428 12.968.162 8.461 5.299 15.578 13.261 18.398zM134.533 185.107c3.696 7.178 9.677 13.07 17.315 15.714l.144.051c-1.653-6.315-6.278-11.371-12.741-13.609a27.675 27.675 0 0 1-4.718-2.156z" opacity="1" data-original="#f35244"></path><circle cx="256" cy="139.245" r="83.327" fill="#EFF4F7" opacity="1" data-original="#eff4f7"></circle><path fill="#E2E3E3" d="M256 55.918c20.854 0 39.919 7.661 54.534 20.322-12.179-6.969-26.286-10.954-41.323-10.954-46.02 0-83.327 37.307-83.327 83.327 0 25.166 11.156 47.726 28.793 63.005-25.093-14.359-42.004-41.39-42.004-72.373 0-46.02 37.307-83.327 83.327-83.327z" opacity="1" data-original="#e2e3e3"></path><path fill="#FFDA2D" d="m256 88.546 13.813 33.804 36.418 2.691-27.88 23.584 8.693 35.467L256 164.863l-31.045 19.229 8.694-35.467-27.88-23.584 36.417-2.691z" opacity="1" data-original="#ffda2d" class=""></path><path fill="#FFC700" d="m256 88.546 4.539 11.109-11.792 28.857-35.751 2.642-7.228-6.114 36.417-2.692zm13.813 33.804 36.418 2.692-6.173 5.222-27.852-2.058zm-35.341 55.847-9.516 5.894 8.694-35.467 6.685 5.655z" opacity="1" data-original="#ffc700" class=""></path><path fill="#FFD6BD" d="m247.983 236.837 139.514 173.258c9.464 9.464 9.463 24.945-.001 34.41-9.465 9.464-24.945 9.465-34.41.001 9.463 9.463 9.463 24.945 0 34.408s-24.947 9.465-34.409.001l-18.769-18.769c9.463 9.463 9.462 24.945 0 34.408-9.463 9.463-24.946 9.463-34.409.001l-33.121-33.121c9.463 9.463 9.463 24.945-.001 34.409-9.462 9.463-24.946 9.461-34.408 0L62.247 360.125l27.522-123.288z" opacity="1" data-original="#ffd6bd" class=""></path><path fill="#F9C6AA" d="m247.983 236.837 19.17 23.807H84.454l5.315-23.807zM273.672 379.027c-3.848-3.848-3.848-10.087 0-13.934 3.848-3.848 10.087-3.848 13.934 0l67.027 67.027c3.848 3.848 3.848 10.087 0 13.935s-10.087 3.848-13.935 0zm-77.027 60.611c-3.848-3.848-3.848-10.087 0-13.934 3.848-3.848 10.087-3.848 13.934 0l23.51 23.51c3.848 3.848 3.848 10.087 0 13.934-3.847 3.848-10.087 3.848-13.934 0zm38.514-30.306 52.363 52.363c3.848 3.848 10.087 3.848 13.934 0 3.848-3.848 3.848-10.087 0-13.934l-52.363-52.363c-3.848-3.848-10.087-3.848-13.934 0-3.848 3.847-3.848 10.086 0 13.934z" opacity="1" data-original="#f9c6aa" class=""></path><path fill="#64B5F6" d="m110.553 223.606-42.585-8.484c-4.572-.911-9.057 2.084-9.968 6.656l-33.092 166.11c-.911 4.571 2.084 9.057 6.657 9.967l42.585 8.483c4.571.911 9.056-2.085 9.967-6.656l33.092-166.11c.91-4.57-2.085-9.056-6.656-9.966z" opacity="1" data-original="#64b5f6" class=""></path><path fill="#42A5F5" d="m110.553 223.606-5.419-1.079-32.498 163.129c-.911 4.571-5.396 7.567-9.967 6.656l-37.167-7.404-.594 2.981c-.911 4.571 2.084 9.057 6.656 9.968l42.585 8.483c4.571.911 9.056-2.084 9.967-6.656l33.092-166.11c.911-4.572-2.084-9.058-6.655-9.968z" opacity="1" data-original="#42a5f5" class=""></path><path fill="#F9C6AA" d="M457.379 350.357c-1.174.447-46.5-114.056-47.658-113.623-43.535 16.269-76.913 22.2-121.769-14.806-14.191-11.708-33.323-13.007-47.443-1.218l-57.099 47.674c-6.824 5.697-10.564 13.619-8.669 22.304l17.321 79.371c44.037-10.852 43.83-42.189 46.933-75.137 1.493-12.619 21.885-9.165 47.48 14.155l105.324 106.858z" opacity="1" data-original="#f9c6aa" class=""></path><path fill="#EAAB92" d="m413.564 245.015-.113-.264-.111-.261-.11-.257-.216-.502-.105-.246-.104-.242-.103-.238-.005-.011-.196-.453-.098-.226-.096-.222-.095-.218-.093-.214-.182-.416-.089-.202-.087-.198-.086-.193-.019-.041-.14-.315-.325-.724-.094-.207-.3-.653-.061-.131c-.104-.222-.2-.425-.289-.609l-.014-.029-.007-.015c-.092-.19-.176-.358-.251-.503l-.019-.036c-.154-.295-.271-.494-.348-.59l-.002-.003c-.039-.048-.067-.069-.085-.062l-.892.332-.081.03-.081.03-.081.03-.081.03-.081.029-.081.03-.069.026-.012.004-.081.03-.081.03-.081.03-.081.03-.081.03-.081.03-.081.03-.081.029-.081.03-.081.03-.161.059-.08.03c-.885.324-1.767.643-2.643.961v.001c-28.676 10.323-53.174 15.412-80.013 5.438 29.28 16.096 54.754 13.668 84.036 4.191 13.5 32.597 38.193 94.309 39.055 93.981l-64.715 64.711 8.861 8.99 65.581-65.577c-.972.37-32.63-79.129-43.809-105.344zM203.042 366.589c33.042-13.116 33.133-41.725 35.952-71.667 1.298-10.973 16.887-9.789 37.758 6.035l-.005-.005c-25.595-23.319-45.987-26.774-47.48-14.155-2.58 27.397-2.88 53.675-28.223 67.993l-12.611-57.789c-1.896-8.685 1.845-16.607 8.669-22.304l57.1-47.674c9.147-7.637 20.396-9.78 31.044-7.16-13.848-9.754-31.496-10.208-44.737.847l-57.099 47.674c-6.824 5.697-10.564 13.619-8.669 22.304l17.321 79.371c.679-.167 1.348-.34 2.006-.517l.049-.014c.63-.17 1.25-.344 1.861-.523l.16-.047a92 92 0 0 0 1.694-.517l.263-.084a84.075 84.075 0 0 0 1.515-.502l.415-.143a80.74 80.74 0 0 0 1.317-.472l.496-.184c.406-.154.807-.31 1.204-.467z" opacity="1" data-original="#eaab92" class=""></path><path fill="#FFDA2D" d="m401.447 223.606 42.585-8.484c4.573-.911 9.058 2.084 9.968 6.656l33.092 166.11c.911 4.571-2.084 9.057-6.657 9.967l-42.585 8.483c-4.571.911-9.056-2.085-9.967-6.656l-33.092-166.11c-.91-4.57 2.085-9.056 6.656-9.966z" opacity="1" data-original="#ffda2d" class=""></path><path fill="#FFC700" d="m401.447 223.606 5.419-1.079 32.498 163.129c.911 4.571 5.396 7.567 9.967 6.656l37.167-7.404.594 2.981c.911 4.571-2.084 9.057-6.656 9.968l-42.585 8.483c-4.572.911-9.056-2.084-9.967-6.656l-33.092-166.11c-.911-4.572 2.084-9.058 6.655-9.968z" opacity="1" data-original="#ffc700" class=""></path></g></g></svg>