<svg xmlns="http://www.w3.org/2000/svg" version="1.1" xmlns:xlink="http://www.w3.org/1999/xlink" width="512" height="512" x="0" y="0" viewBox="0 0 211.667 211.667" style="enable-background:new 0 0 512 512" xml:space="preserve" fill-rule="evenodd"><g><g fill="#FF3131"><path d="M105.833 160.964c-30.398 0-55.13-24.733-55.13-55.13s24.732-55.132 55.13-55.132c30.398 0 55.13 24.733 55.13 55.131s-24.732 55.131-55.13 55.131zm-38.452-51.956a3.175 3.175 0 0 1-3.175-3.175c0-22.954 18.672-41.627 41.627-41.627a3.175 3.175 0 0 1 0 6.35c-19.452 0-35.277 15.825-35.277 35.277a3.175 3.175 0 0 1-3.175 3.175z" fill="#FF3131" opacity="1" data-original="#ff3131"></path><path stroke="#FF3131" stroke-width="0.076px" d="M105.833 41.739a3.175 3.175 0 0 1-3.175-3.175V18.699a3.175 3.175 0 0 1 6.35 0v19.865a3.175 3.175 0 0 1-3.175 3.175z" fill="#FF3131" opacity="1" data-original="#ff3131"></path><path d="M139.466 50.752a3.173 3.173 0 0 1-2.744-4.762l9.933-17.205a3.173 3.173 0 1 1 5.496 3.175l-9.934 17.204a3.171 3.171 0 0 1-2.751 1.588zM164.093 75.375a3.167 3.167 0 0 1-2.752-1.587 3.173 3.173 0 0 1 1.161-4.336l17.205-9.934a3.173 3.173 0 1 1 3.175 5.496l-17.205 9.934a3.153 3.153 0 0 1-1.584.427zM192.967 109.008h-19.864a3.175 3.175 0 0 1 0-6.35h19.864a3.175 3.175 0 0 1 0 6.35zM181.291 152.575c-.54 0-1.083-.138-1.584-.427l-17.205-9.934a3.173 3.173 0 1 1 3.175-5.496l17.205 9.934a3.173 3.173 0 0 1-1.591 5.923zM149.404 184.469a3.167 3.167 0 0 1-2.752-1.587l-9.934-17.205a3.173 3.173 0 0 1 1.161-4.336 3.172 3.172 0 0 1 4.335 1.161l9.934 17.205a3.173 3.173 0 0 1-2.744 4.762zM105.833 196.142a3.175 3.175 0 0 1-3.175-3.175v-19.864a3.175 3.175 0 0 1 6.35 0v19.864a3.175 3.175 0 0 1-3.175 3.175zM62.263 184.469a3.173 3.173 0 0 1-2.745-4.762l9.934-17.205a3.173 3.173 0 1 1 5.496 3.175l-9.934 17.205a3.174 3.174 0 0 1-2.751 1.587zM30.376 152.575a3.167 3.167 0 0 1-2.752-1.587 3.173 3.173 0 0 1 1.161-4.336l17.205-9.934a3.173 3.173 0 1 1 3.174 5.496l-17.204 9.938c-.5.289-1.048.423-1.584.423zM38.564 109.008H18.699a3.175 3.175 0 0 1 0-6.35h19.865a3.175 3.175 0 0 1 0 6.35zM47.574 75.375c-.54 0-1.083-.137-1.584-.427l-17.205-9.934a3.173 3.173 0 1 1 3.175-5.496l17.204 9.934a3.173 3.173 0 0 1-1.59 5.923zM72.2 50.752a3.167 3.167 0 0 1-2.751-1.588L59.515 31.96a3.176 3.176 0 0 1 1.16-4.336 3.176 3.176 0 0 1 4.336 1.16l9.934 17.206a3.176 3.176 0 0 1-2.745 4.762z" fill="#FF3131" opacity="1" data-original="#ff3131"></path></g></g></svg>