<svg width="25" height="25" viewBox="0 0 25 25" fill="none" xmlns="http://www.w3.org/2000/svg">
<path fill-rule="evenodd" clip-rule="evenodd" d="M8.98438 4.6875V2.34375H16.0156V4.6875H8.98438ZM6.64062 4.6875V1.5625C6.64062 1.1481 6.80525 0.750671 7.09827 0.457646C7.3913 0.16462 7.78872 0 8.20312 0L16.7969 0C17.2113 0 17.6087 0.16462 17.9017 0.457646C18.1948 0.750671 18.3594 1.1481 18.3594 1.5625V4.6875H22.2656C22.5764 4.6875 22.8745 4.81097 23.0943 5.03073C23.314 5.2505 23.4375 5.54857 23.4375 5.85938C23.4375 6.17018 23.314 6.46825 23.0943 6.68802C22.8745 6.90778 22.5764 7.03125 22.2656 7.03125H21.6953L20.5344 22.1141C20.4741 22.8991 20.1198 23.6325 19.5421 24.1676C18.9645 24.7027 18.2061 24.9999 17.4187 25H7.58125C6.79387 24.9999 6.03553 24.7027 5.45788 24.1676C4.88023 23.6325 4.52586 22.8991 4.46563 22.1141L3.30469 7.03125H2.73438C2.42357 7.03125 2.1255 6.90778 1.90573 6.68802C1.68597 6.46825 1.5625 6.17018 1.5625 5.85938C1.5625 5.54857 1.68597 5.2505 1.90573 5.03073C2.1255 4.81097 2.42357 4.6875 2.73438 4.6875H6.64062ZM5.65625 7.03125H19.3438L18.1969 21.9344C18.1819 22.1306 18.0935 22.3139 17.9492 22.4477C17.805 22.5816 17.6155 22.656 17.4187 22.6562H7.58125C7.38448 22.656 7.19503 22.5816 7.05078 22.4477C6.90652 22.3139 6.81808 22.1306 6.80313 21.9344L5.65625 7.03125Z" fill="#DE0101"/>
</svg>
