<svg width="26" height="26" viewBox="0 0 26 26" fill="none" xmlns="http://www.w3.org/2000/svg">
<path d="M24.375 10.5625H23.2781L20.4567 4.21484C20.329 3.92765 20.1208 3.68365 19.8573 3.5124C19.5937 3.34115 19.2862 3.25 18.9719 3.25H7.02812C6.71383 3.25 6.40628 3.34115 6.14274 3.5124C5.87919 3.68365 5.67096 3.92765 5.54328 4.21484L2.72187 10.5625H1.625C1.40951 10.5625 1.20285 10.6481 1.05048 10.8005C0.898102 10.9528 0.8125 11.1595 0.8125 11.375C0.8125 11.5905 0.898102 11.7972 1.05048 11.9495C1.20285 12.1019 1.40951 12.1875 1.625 12.1875H2.4375V20.3125C2.4375 20.7435 2.6087 21.1568 2.91345 21.4615C3.2182 21.7663 3.63152 21.9375 4.0625 21.9375H6.5C6.93098 21.9375 7.3443 21.7663 7.64905 21.4615C7.95379 21.1568 8.125 20.7435 8.125 20.3125V18.6875H17.875V20.3125C17.875 20.7435 18.0462 21.1568 18.351 21.4615C18.6557 21.7663 19.069 21.9375 19.5 21.9375H21.9375C22.3685 21.9375 22.7818 21.7663 23.0865 21.4615C23.3913 21.1568 23.5625 20.7435 23.5625 20.3125V12.1875H24.375C24.5905 12.1875 24.7972 12.1019 24.9495 11.9495C25.1019 11.7972 25.1875 11.5905 25.1875 11.375C25.1875 11.1595 25.1019 10.9528 24.9495 10.8005C24.7972 10.6481 24.5905 10.5625 24.375 10.5625ZM7.02812 4.875H18.9719L21.4998 10.5625H4.50023L7.02812 4.875ZM6.5 20.3125H4.0625V18.6875H6.5V20.3125ZM19.5 20.3125V18.6875H21.9375V20.3125H19.5ZM21.9375 17.0625H4.0625V12.1875H21.9375V17.0625ZM5.6875 14.625C5.6875 14.4095 5.7731 14.2028 5.92548 14.0505C6.07785 13.8981 6.28451 13.8125 6.5 13.8125H8.125C8.34049 13.8125 8.54715 13.8981 8.69952 14.0505C8.8519 14.2028 8.9375 14.4095 8.9375 14.625C8.9375 14.8405 8.8519 15.0472 8.69952 15.1995C8.54715 15.3519 8.34049 15.4375 8.125 15.4375H6.5C6.28451 15.4375 6.07785 15.3519 5.92548 15.1995C5.7731 15.0472 5.6875 14.8405 5.6875 14.625ZM17.0625 14.625C17.0625 14.4095 17.1481 14.2028 17.3005 14.0505C17.4528 13.8981 17.6595 13.8125 17.875 13.8125H19.5C19.7155 13.8125 19.9222 13.8981 20.0745 14.0505C20.2269 14.2028 20.3125 14.4095 20.3125 14.625C20.3125 14.8405 20.2269 15.0472 20.0745 15.1995C19.9222 15.3519 19.7155 15.4375 19.5 15.4375H17.875C17.6595 15.4375 17.4528 15.3519 17.3005 15.1995C17.1481 15.0472 17.0625 14.8405 17.0625 14.625Z" fill="#DE0101"/>
</svg>
