<svg width="15" height="22" viewBox="0 0 15 22" fill="none" xmlns="http://www.w3.org/2000/svg">
<path d="M7.50004 10.4583C6.80937 10.4583 6.14699 10.173 5.65862 9.66504C5.17024 9.15713 4.89587 8.46825 4.89587 7.74996C4.89587 7.03166 5.17024 6.34279 5.65862 5.83488C6.14699 5.32697 6.80937 5.04163 7.50004 5.04163C8.19071 5.04163 8.85309 5.32697 9.34146 5.83488C9.82984 6.34279 10.1042 7.03166 10.1042 7.74996C10.1042 8.10562 10.0368 8.4578 9.90598 8.78639C9.77511 9.11498 9.58328 9.41355 9.34146 9.66504C9.09964 9.91653 8.81256 10.116 8.49661 10.2521C8.18066 10.3882 7.84202 10.4583 7.50004 10.4583ZM7.50004 0.166626C5.56617 0.166626 3.71151 0.965582 2.34405 2.38773C0.976601 3.80988 0.208374 5.73873 0.208374 7.74996C0.208374 13.4375 7.50004 21.8333 7.50004 21.8333C7.50004 21.8333 14.7917 13.4375 14.7917 7.74996C14.7917 5.73873 14.0235 3.80988 12.656 2.38773C11.2886 0.965582 9.43391 0.166626 7.50004 0.166626Z" fill="#DE0101"/>
</svg>
