<svg xmlns="http://www.w3.org/2000/svg" version="1.1" xmlns:xlink="http://www.w3.org/1999/xlink" width="512" height="512" x="0" y="0" viewBox="0 0 24 24" style="enable-background:new 0 0 512 512" xml:space="preserve"><g><path d="M20 8c2.206 0 4-1.794 4-4s-1.794-4-4-4-4 1.794-4 4 1.794 4 4 4Zm0-6c1.103 0 2 .897 2 2s-.897 2-2 2-2-.897-2-2 .897-2 2-2Zm3.272 14.247-.005-.019v-.001l-1.573-6.473a5.997 5.997 0 0 1-1.694.247c-.104 0-.205-.01-.308-.016l1.637 6.735c.002.007.007.012.008.02h-.004a.986.986 0 0 1-.169.866.976.976 0 0 1-.796.395H3.493a.997.997 0 0 1-.778-.371.992.992 0 0 1-.207-.812L4.86 7.701c.746-3.356 3.682-5.7 7.14-5.7.773 0 1.523.132 2.232.361a5.95 5.95 0 0 1 .872-1.821A9.257 9.257 0 0 0 12 .002C7.598 0 3.859 2.988 2.916 7.233L.564 16.352c-.197.89.018 1.811.591 2.528A2.989 2.989 0 0 0 3.493 20h3.608c.465 2.279 2.484 4 4.899 4s4.434-1.721 4.899-4h3.47a2.98 2.98 0 0 0 2.39-1.186 2.98 2.98 0 0 0 .514-2.55v-.017ZM12 22a2.996 2.996 0 0 1-2.816-2h5.631a2.996 2.996 0 0 1-2.816 2Z" fill="#000000" opacity="1" data-original="#000000"></path></g></svg>