<svg width="18" height="20" viewBox="0 0 18 20" fill="none" xmlns="http://www.w3.org/2000/svg">
<path d="M17.7651 5.98199L17.7871 6.17199L17.7941 6.36599V13.634C17.794 14.0426 17.6937 14.4449 17.5021 14.8058C17.3106 15.1666 17.0334 15.475 16.6951 15.704L16.5451 15.799L10.2501 19.433L10.1261 19.5L10.0001 19.56V10.57L17.7651 5.98199ZM0.235054 5.98199L8.00005 10.571V19.559C7.91444 19.5217 7.83098 19.4796 7.75005 19.433L1.45605 15.799C1.07602 15.5796 0.760427 15.264 0.541007 14.884C0.321587 14.5039 0.206066 14.0728 0.206055 13.634V6.36599C0.206055 6.23599 0.216055 6.10799 0.236055 5.98199H0.235054ZM10.2501 0.566992L16.5441 4.20099C16.5941 4.23099 16.6441 4.26099 16.6921 4.29299L9.00005 8.83799L1.30805 4.29299C1.35628 4.26058 1.40565 4.22989 1.45605 4.20099L7.75005 0.566992C8.1301 0.347571 8.56121 0.232056 9.00005 0.232056C9.4389 0.232056 9.87001 0.347571 10.2501 0.566992Z" fill="#DE0101"/>
</svg>
