<svg width="23" height="15" viewBox="0 0 23 15" fill="none" xmlns="http://www.w3.org/2000/svg">
<g clip-path="url(#clip0_1_1325)">
<path d="M21.4667 15H1.53333C1.12667 15 0.736659 14.842 0.449103 14.5607C0.161547 14.2794 0 13.8978 0 13.5L0 1.5C0 1.10218 0.161547 0.720644 0.449103 0.43934C0.736659 0.158035 1.12667 0 1.53333 0L21.4667 0C21.8733 0 22.2633 0.158035 22.5509 0.43934C22.8385 0.720644 23 1.10218 23 1.5V13.5C23 13.8978 22.8385 14.2794 22.5509 14.5607C22.2633 14.842 21.8733 15 21.4667 15ZM11.3978 9.22625L11.1684 10.6325C11.7546 10.8738 12.3876 10.9871 13.0231 10.9644H13.0161C13.7609 11.0069 14.4984 10.8013 15.1084 10.3813L15.0976 10.3881C15.3467 10.209 15.5492 9.97515 15.6888 9.70535C15.8284 9.43554 15.9012 9.1374 15.9013 8.835V8.82563C15.9013 8.13813 15.4311 7.5675 14.5041 7.12625C14.2511 7.00683 14.0091 6.86631 13.7808 6.70625L13.7955 6.71625C13.7318 6.67585 13.6787 6.62127 13.6406 6.55696C13.6025 6.49266 13.5805 6.42046 13.5764 6.34625V6.345C13.5812 6.26759 13.6059 6.19263 13.6482 6.12706C13.6905 6.0615 13.7491 6.00747 13.8185 5.97L13.8211 5.96875C14.0355 5.84772 14.2819 5.79181 14.529 5.80813H14.5251H14.5763L14.6254 5.8075C15.0369 5.8075 15.4272 5.89438 15.7793 6.05L15.7614 6.04312L15.9109 6.12125L16.1403 4.76438C15.6764 4.58842 15.183 4.49896 14.6855 4.50063H14.6542H14.6561C13.9363 4.46979 13.2265 4.67478 12.6391 5.08313L12.6494 5.07625C12.4053 5.2448 12.2061 5.46822 12.0685 5.72771C11.931 5.98721 11.8592 6.2752 11.8591 6.5675V6.57062C11.8527 7.23187 12.3395 7.80312 13.3068 8.27063C13.5623 8.38 13.7828 8.51375 13.9802 8.67437L13.9757 8.67062C14.0327 8.7175 14.079 8.77553 14.1117 8.84098C14.1444 8.90643 14.1627 8.97784 14.1654 9.05062V9.05312C14.1654 9.2525 14.0441 9.42375 13.869 9.50063L13.8658 9.50187C13.6741 9.60063 13.4467 9.65812 13.2052 9.65812H13.1758H13.1771H13.1292C12.5816 9.65812 12.0629 9.53938 11.5977 9.32688L11.6201 9.33625L11.401 9.22875L11.3978 9.22625ZM17.8665 9.93937H19.9844C20.0185 10.0823 20.0852 10.3948 20.1844 10.8769H21.7222L20.3844 4.6075H19.1066C18.9239 4.59166 18.7409 4.63389 18.5847 4.72791C18.4285 4.82192 18.3075 4.96272 18.2396 5.12937L18.2377 5.135L15.7844 10.8769H17.5222L17.871 9.94L17.8665 9.93937ZM9.51369 4.6075L8.47486 10.8769H10.1321L11.1703 4.6075H9.51369ZM3.14461 5.88687L4.49267 10.8669H6.23939L8.84286 4.6075H7.08847L5.46953 8.885L5.29958 8.01562L4.72203 5.135C4.69107 4.96885 4.59534 4.82097 4.45504 4.72255C4.31474 4.62413 4.14085 4.58288 3.97006 4.6075L3.97389 4.60687H1.29886L1.27906 4.73375C3.33883 5.24563 4.692 6.35 5.3015 8.015C5.1142 7.53924 4.8254 7.10799 4.45433 6.75L4.45369 6.74937C4.08915 6.38321 3.6531 6.09245 3.17144 5.89437L3.14589 5.885L3.14461 5.88687ZM19.7155 8.65H18.3355C18.4287 8.40917 18.6485 7.82583 18.9948 6.9L19.0242 6.81188L19.1264 6.55813C19.1686 6.45437 19.1967 6.36937 19.2159 6.30437L19.336 6.84125L19.7148 8.6475L19.7155 8.65Z" fill="#DE0101"/>
</g>
<defs>
<clipPath id="clip0_1_1325">
<rect width="23" height="15" fill="white"/>
</clipPath>
</defs>
</svg>
