<svg xmlns="http://www.w3.org/2000/svg" version="1.1" xmlns:xlink="http://www.w3.org/1999/xlink" width="512" height="512" x="0" y="0" viewBox="0 0 512 512" style="enable-background:new 0 0 512 512" xml:space="preserve" class=""><g><path fill="#FF4A4A" d="m317.348 476.09-48.852-13.793a8.269 8.269 0 0 0-9.492 3.965l-24.461 44.48c-.98 1.785-3.578 1.637-4.371-.23l-21.98-52.524-52.922-126.453 39.195-93.633 33.308 13.938 33.348 79.687 59.129 141.286c.781 1.878-.953 3.828-2.902 3.277zm0 0" opacity="1" data-original="#ff4a4a"></path><path fill="#EF3535" d="m261.121 331.527-52.93 126.461-52.921-126.453 39.195-93.633 33.305 13.938zm0 0" opacity="1" data-original="#ef3535" class=""></path><path fill="#FF4A4A" d="m134.773 510.742-24.464-44.476a8.256 8.256 0 0 0-9.485-3.97L51.97 476.09c-1.953.55-3.684-1.403-2.899-3.278l102.97-246.039 90.07 37.696-102.97 246.039c-.785 1.875-3.386 2.015-4.367.234zm0 0" opacity="1" data-original="#ff4a4a"></path><path fill="#FFD782" d="m206.629 7.89 30.055 24.774a34.555 34.555 0 0 0 18.66 7.73l38.77 3.731c16.46 1.586 29.488 14.613 31.074 31.074l3.734 38.77a34.53 34.53 0 0 0 7.73 18.66l24.774 30.055c10.52 12.761 10.52 31.183 0 43.945l-24.774 30.055a34.53 34.53 0 0 0-7.73 18.66l-3.735 38.77c-1.585 16.46-14.613 29.488-31.074 31.074l-38.77 3.734a34.568 34.568 0 0 0-18.66 7.726l-30.054 24.778c-12.758 10.515-31.184 10.515-43.945 0l-30.051-24.778a34.58 34.58 0 0 0-18.664-7.726l-38.766-3.735c-16.46-1.585-29.492-14.613-31.074-31.074l-3.734-38.77a34.53 34.53 0 0 0-7.73-18.66L7.89 206.63c-10.52-12.758-10.52-31.184 0-43.945l24.773-30.051a34.555 34.555 0 0 0 7.73-18.664l3.731-38.77c1.586-16.457 14.613-29.488 31.074-31.07l38.77-3.734a34.53 34.53 0 0 0 18.66-7.73L162.684 7.89c12.761-10.52 31.187-10.52 43.945 0zm0 0" opacity="1" data-original="#ffd782" class=""></path><path fill="#FF8000" d="M299.059 184.656c0 63.184-51.22 114.403-114.403 114.403-63.18 0-114.398-51.22-114.398-114.403 0-63.18 51.219-114.398 114.398-114.398 63.184 0 114.403 51.219 114.403 114.398zm0 0" opacity="1" data-original="#ff8000" class=""></path><path fill="#FF5F06" d="M184.656 70.258c-9.918 0-19.547 1.262-28.726 3.637 49.277 12.742 85.675 57.5 85.675 110.761s-36.394 98.02-85.675 110.762a114.569 114.569 0 0 0 28.726 3.637c63.184 0 114.403-51.22 114.403-114.399 0-63.183-51.22-114.398-114.403-114.398zm0 0" opacity="1" data-original="#ff5f06" class=""></path><path fill="#FFFFFF" d="M158.043 242.785c-4.27 0-8.363-1.695-11.383-4.715l-34.172-34.175c-6.289-6.286-6.289-16.48 0-22.77 6.285-6.29 16.48-6.29 22.77 0l22.789 22.79 63.21-63.216c6.29-6.285 16.485-6.285 22.77 0 6.29 6.29 6.29 16.485 0 22.774L169.43 238.07a16.098 16.098 0 0 1-11.387 4.715zm0 0" opacity="1" data-original="#ffffff" class=""></path></g></svg>