<svg xmlns="http://www.w3.org/2000/svg" version="1.1" xmlns:xlink="http://www.w3.org/1999/xlink" width="512" height="512" x="0" y="0" viewBox="0 0 453.543 453.543" style="enable-background:new 0 0 512 512" xml:space="preserve"><g><path fill="#FF5F6E" d="M226.771 0C157.89 125.74 23.514 95.585 23.514 95.585c0 302.628 203.257 357.958 203.257 357.958s203.258-55.33 203.258-357.958c0 0-134.376 30.155-203.258-95.585z" opacity="1" data-original="#ff5f6e"></path><path fill="#FFFFFF" d="M211.1 414.433c-39.473-20.143-72.765-51.291-97.372-87.999-24.229-36.144-39.909-77.233-49.05-119.642-5.836-27.074-9.011-54.636-10.307-82.287-.257-5.492-8.83-5.523-8.571 0 2.271 48.436 10.218 97.067 27.723 142.451 15.621 40.498 38.786 78.05 69.748 108.636 18.672 18.446 40.107 34.302 63.504 46.242 4.902 2.502 9.245-4.891 4.325-7.401zM226.772 429.76c5.515 0 5.524-8.571 0-8.571-5.516 0-5.525 8.571 0 8.571z" opacity="1" data-original="#ffffff"></path><path fill="#EDE1FF" d="M275.766 289.66 247.9 242.18c12.48-7.285 20.889-20.785 20.889-36.278 0-23.206-18.812-42.018-42.019-42.018-23.206 0-42.018 18.812-42.018 42.018 0 15.493 8.409 28.993 20.89 36.278l-27.866 47.48z" opacity="1" data-original="#ede1ff"></path></g></svg>