<svg width="31" height="31" viewBox="0 0 31 31" fill="none" xmlns="http://www.w3.org/2000/svg">
<path d="M15.4998 17.4193C17.5696 17.4193 22.436 14.9283 22.436 8.9596C22.436 8.1271 22.4157 7.3229 22.3472 6.56303C22.2345 5.06735 21.9281 3.7418 21.1653 2.72589C20.1872 1.34389 18.4757 0.5 15.4998 0.5C12.5237 0.5 10.8122 1.34397 9.83398 2.72623C9.07168 3.74154 8.76528 5.06614 8.65258 6.56079C8.58378 7.3214 8.56348 8.1263 8.56348 8.9596C8.56348 14.9283 13.43 17.4193 15.4998 17.4193ZM17.7639 3.59921C17.5618 4.10978 17.4607 4.36511 17.2585 4.87559C15.9537 4.50693 15.0458 4.50693 13.7409 4.87559C13.5388 4.36511 13.4377 4.10978 13.2356 3.59921C14.8673 3.10519 16.1322 3.10528 17.7639 3.59921ZM9.59538 7.6652C9.67508 7.8397 10.0146 8.5121 10.5404 8.5752C11.1444 8.6477 12.1471 6.43588 15.4997 6.43047C18.8523 6.43588 19.855 8.6477 20.459 8.5752C20.9847 8.5121 21.3243 7.8396 21.404 7.6652C21.4203 8.0936 21.4263 8.5272 21.4263 8.9596C21.4263 11.8771 20.138 13.6849 19.0573 14.6876C17.6956 15.9511 16.1837 16.4097 15.4997 16.4097C14.8157 16.4097 13.3038 15.9511 11.9421 14.6876C10.8613 13.6849 9.57308 11.8771 9.57308 8.9596C9.57308 8.5272 9.57908 8.0935 9.59538 7.6652Z" fill="#B67C00"/>
<path d="M28.3772 26.0953C28.023 23.8933 27.2941 21.057 25.8319 20.0491C24.8334 19.3606 21.3496 17.4994 19.862 16.7046L19.8363 16.6908C19.6662 16.6 19.4585 16.6182 19.3069 16.7373C18.5276 17.3491 17.674 17.7614 16.7697 17.9628C16.61 17.9984 16.4787 18.1119 16.4207 18.2649L15.5 20.6921L14.5791 18.2649C14.521 18.1119 14.3899 17.9984 14.2302 17.9628C13.3259 17.7614 12.4722 17.3491 11.6929 16.7373C11.5412 16.6182 11.3336 16.5999 11.1636 16.6908C9.6936 17.4763 6.1673 19.3755 5.1724 20.0461C3.4891 21.18 2.7531 25.2841 2.6226 26.0953C2.6097 26.1758 2.6172 26.258 2.6444 26.3348C2.7046 26.5049 4.2495 30.5 15.5 30.5C26.7505 30.5 28.2953 26.5049 28.3555 26.3348C28.3826 26.258 28.3901 26.1757 28.3772 26.0953ZM22.4335 24.2944L21.3477 26.6905C21.3301 26.7293 21.2915 26.7536 21.2498 26.7536C21.2444 26.7536 21.239 26.7533 21.2336 26.7524C21.186 26.7452 21.149 26.7073 21.1429 26.6595L20.943 25.075H20.4436C20.4149 25.075 20.3874 25.0635 20.3671 25.043C20.3469 25.0227 20.3357 24.995 20.336 24.9663L20.3601 22.5703C20.3607 22.5112 20.4087 22.4637 20.4677 22.4637H22.1607C22.1948 22.4637 22.227 22.48 22.2472 22.5075C22.2675 22.5348 22.2736 22.5703 22.2635 22.603L21.7904 24.1423H22.3354C22.3721 24.1423 22.4061 24.1609 22.4259 24.1916C22.4458 24.2224 22.4486 24.2611 22.4335 24.2944Z" fill="#B67C00"/>
</svg>
