<svg width="26" height="26" viewBox="0 0 26 26" fill="none" xmlns="http://www.w3.org/2000/svg">
<path d="M23.8371 12.9464L17.5549 10.6884L14.9289 7.39132C14.7005 7.11214 14.4129 6.88731 14.0869 6.73314C13.7608 6.57897 13.4045 6.49933 13.0439 6.5H6.54712C6.14981 6.50001 5.75852 6.59714 5.40733 6.78293C5.05613 6.96873 4.75568 7.23755 4.53212 7.566L2.32862 10.8022C1.87024 11.476 1.62508 12.272 1.625 13.0869V19.5C1.625 19.7155 1.7106 19.9222 1.86298 20.0745C2.01535 20.2269 2.22201 20.3125 2.4375 20.3125H4.17788C4.35462 21.0098 4.75884 21.6283 5.32657 22.0701C5.8943 22.5119 6.59313 22.7517 7.3125 22.7517C8.03187 22.7517 8.7307 22.5119 9.29843 22.0701C9.86616 21.6283 10.2704 21.0098 10.4471 20.3125H15.5529C15.7296 21.0098 16.1338 21.6283 16.7016 22.0701C17.2693 22.5119 17.9681 22.7517 18.6875 22.7517C19.4069 22.7517 20.1057 22.5119 20.6734 22.0701C21.2412 21.6283 21.6454 21.0098 21.8221 20.3125H23.5625C23.778 20.3125 23.9847 20.2269 24.137 20.0745C24.2894 19.9222 24.375 19.7155 24.375 19.5V13.7109C24.375 13.5436 24.3233 13.3804 24.227 13.2436C24.1308 13.1067 23.9946 13.0029 23.8371 12.9464ZM7.3125 21.125C6.99111 21.125 6.67693 21.0297 6.4097 20.8511C6.14247 20.6726 5.93419 20.4188 5.8112 20.1219C5.6882 19.8249 5.65602 19.4982 5.71872 19.183C5.78142 18.8678 5.93619 18.5782 6.16345 18.351C6.39071 18.1237 6.68026 17.9689 6.99548 17.9062C7.3107 17.8435 7.63743 17.8757 7.93436 17.9987C8.23129 18.1217 8.48508 18.33 8.66364 18.5972C8.8422 18.8644 8.9375 19.1786 8.9375 19.5C8.93686 19.9308 8.76544 20.3437 8.46084 20.6483C8.15623 20.9529 7.74328 21.1244 7.3125 21.125ZM18.6875 21.125C18.3661 21.125 18.0519 21.0297 17.7847 20.8511C17.5175 20.6726 17.3092 20.4188 17.1862 20.1219C17.0632 19.8249 17.031 19.4982 17.0937 19.183C17.1564 18.8678 17.3112 18.5782 17.5385 18.351C17.7657 18.1237 18.0553 17.9689 18.3705 17.9062C18.6857 17.8435 19.0124 17.8757 19.3094 17.9987C19.6063 18.1217 19.8601 18.33 20.0386 18.5972C20.2172 18.8644 20.3125 19.1786 20.3125 19.5C20.3119 19.9308 20.1404 20.3437 19.8358 20.6483C19.5312 20.9529 19.1183 21.1244 18.6875 21.125ZM22.75 18.6875H21.8221C21.6454 17.9902 21.2412 17.3717 20.6734 16.9299C20.1057 16.4881 19.4069 16.2483 18.6875 16.2483C17.9681 16.2483 17.2693 16.4881 16.7016 16.9299C16.1338 17.3717 15.7296 17.9902 15.5529 18.6875H10.4471C10.2704 17.9902 9.86616 17.3717 9.29843 16.9299C8.7307 16.4881 8.03187 16.2483 7.3125 16.2483C6.59313 16.2483 5.8943 16.4881 5.32657 16.9299C4.75884 17.3717 4.35462 17.9902 4.17788 18.6875H3.25V13.0869C3.25001 12.5977 3.39723 12.1199 3.6725 11.7154L5.87519 8.48088C5.94967 8.37126 6.04984 8.28152 6.16696 8.21949C6.28408 8.15746 6.41459 8.12502 6.54712 8.125H13.0439C13.1621 8.12503 13.2789 8.15085 13.3861 8.20066C13.4933 8.25048 13.5884 8.3231 13.6646 8.41344L16.4271 11.8812C16.5211 11.9991 16.646 12.0886 16.7879 12.1396L22.75 14.2821V18.6875Z" fill="#DE0101"/>
</svg>
