<svg width="26" height="26" viewBox="0 0 26 26" fill="none" xmlns="http://www.w3.org/2000/svg">
<path d="M2.16288 12.9464L8.44512 10.6884L11.0711 7.39132C11.2995 7.11214 11.5871 6.88731 11.9131 6.73314C12.2392 6.57897 12.5955 6.49933 12.9561 6.5H19.4529C19.8502 6.50001 20.2415 6.59714 20.5927 6.78293C20.9439 6.96873 21.2443 7.23755 21.4679 7.566L23.6714 10.8022C24.1298 11.476 24.3749 12.272 24.375 13.0869V19.5C24.375 19.7155 24.2894 19.9222 24.137 20.0745C23.9847 20.2269 23.778 20.3125 23.5625 20.3125H21.8221C21.6454 21.0098 21.2412 21.6283 20.6734 22.0701C20.1057 22.5119 19.4069 22.7517 18.6875 22.7517C17.9681 22.7517 17.2693 22.5119 16.7016 22.0701C16.1338 21.6283 15.7296 21.0098 15.5529 20.3125H10.4471C10.2704 21.0098 9.86616 21.6283 9.29843 22.0701C8.7307 22.5119 8.03187 22.7517 7.3125 22.7517C6.59313 22.7517 5.8943 22.5119 5.32657 22.0701C4.75884 21.6283 4.35462 21.0098 4.17788 20.3125H2.4375C2.22201 20.3125 2.01535 20.2269 1.86298 20.0745C1.7106 19.9222 1.625 19.7155 1.625 19.5V13.7109C1.62502 13.5436 1.6767 13.3804 1.77297 13.2436C1.86924 13.1067 2.00541 13.0029 2.16288 12.9464ZM18.6875 21.125C19.0089 21.125 19.3231 21.0297 19.5903 20.8511C19.8575 20.6726 20.0658 20.4188 20.1888 20.1219C20.3118 19.8249 20.344 19.4982 20.2813 19.183C20.2186 18.8678 20.0638 18.5782 19.8365 18.351C19.6093 18.1237 19.3197 17.9689 19.0045 17.9062C18.6893 17.8435 18.3626 17.8757 18.0656 17.9987C17.7687 18.1217 17.5149 18.33 17.3364 18.5972C17.1578 18.8644 17.0625 19.1786 17.0625 19.5C17.0631 19.9308 17.2346 20.3437 17.5392 20.6483C17.8438 20.9529 18.2567 21.1244 18.6875 21.125ZM7.3125 21.125C7.63389 21.125 7.94807 21.0297 8.2153 20.8511C8.48253 20.6726 8.69081 20.4188 8.8138 20.1219C8.9368 19.8249 8.96898 19.4982 8.90628 19.183C8.84358 18.8678 8.68881 18.5782 8.46155 18.351C8.23429 18.1237 7.94474 17.9689 7.62952 17.9062C7.3143 17.8435 6.98757 17.8757 6.69064 17.9987C6.39371 18.1217 6.13992 18.33 5.96136 18.5972C5.7828 18.8644 5.6875 19.1786 5.6875 19.5C5.68814 19.9308 5.85956 20.3437 6.16416 20.6483C6.46877 20.9529 6.88172 21.1244 7.3125 21.125ZM3.25 18.6875H4.17788C4.35462 17.9902 4.75884 17.3717 5.32657 16.9299C5.8943 16.4881 6.59313 16.2483 7.3125 16.2483C8.03187 16.2483 8.7307 16.4881 9.29843 16.9299C9.86616 17.3717 10.2704 17.9902 10.4471 18.6875H15.5529C15.7296 17.9902 16.1338 17.3717 16.7016 16.9299C17.2693 16.4881 17.9681 16.2483 18.6875 16.2483C19.4069 16.2483 20.1057 16.4881 20.6734 16.9299C21.2412 17.3717 21.6454 17.9902 21.8221 18.6875H22.75V13.0869C22.75 12.5977 22.6028 12.1199 22.3275 11.7154L20.1248 8.48088C20.0503 8.37126 19.9502 8.28152 19.833 8.21949C19.7159 8.15746 19.5854 8.12502 19.4529 8.125H12.9561C12.8379 8.12503 12.7211 8.15085 12.6139 8.20066C12.5067 8.25048 12.4116 8.3231 12.3354 8.41344L9.57288 11.8812C9.47893 11.9991 9.35402 12.0886 9.21212 12.1396L3.25 14.2821V18.6875Z" fill="#DE0101"/>
</svg>
