<svg width="25" height="25" viewBox="0 0 25 25" fill="none" xmlns="http://www.w3.org/2000/svg">
<path d="M22.8295 13.8812C22.1299 13.8812 21.5115 14.332 21.2958 14.9976C20.1295 18.6004 16.7478 21.2144 12.7614 21.2144C7.81228 21.2144 3.78571 17.1874 3.78571 12.238C3.78571 8.2679 6.37812 4.89705 9.9588 3.71752C10.6502 3.48972 11.1186 2.84329 11.1186 2.11452C11.1186 1.59831 10.8716 1.11304 10.4545 0.80949C10.0374 0.505473 9.4999 0.419678 9.00906 0.577721C4.0785 2.16562 0.500183 6.78698 0.500183 12.2381C0.500183 18.9995 6.00034 24.5 12.7613 24.5C18.1907 24.5 22.7965 20.9498 24.4016 16.0505C24.5667 15.5467 24.4801 14.9945 24.1689 14.5651C23.8584 14.1359 23.3604 13.8812 22.8295 13.8812Z" fill="#DE0101"/>
<path d="M15.519 3.70329C18.2445 4.58563 20.4012 6.73763 21.29 9.46032C21.5114 10.1381 22.1427 10.5958 22.8558 10.5958H22.8896C23.4045 10.5958 23.8884 10.3496 24.1915 9.93365C24.4939 9.51776 24.5805 8.98151 24.4225 8.49147C23.2202 4.75283 20.2693 1.7958 16.5338 0.584672C16.0388 0.424308 15.4958 0.510482 15.0748 0.81644C14.6536 1.12282 14.4042 1.61218 14.4042 2.13303V2.16877C14.404 2.86746 14.8547 3.4879 15.519 3.70329Z" fill="#DE0101"/>
</svg>
