<svg xmlns="http://www.w3.org/2000/svg" version="1.1" xmlns:xlink="http://www.w3.org/1999/xlink" width="512" height="512" x="0" y="0" viewBox="0 0 24 24" style="enable-background:new 0 0 512 512" xml:space="preserve"><g><path d="M12 0a12 12 0 1 0 12 12A12.013 12.013 0 0 0 12 0Zm0 22a10 10 0 1 1 10-10 10.011 10.011 0 0 1-10 10Z" fill="#de0101" opacity="1" data-original="#de0101"></path><path d="M12 6a1 1 0 0 0-1 1v4.325l-3.371 2.112a1 1 0 0 0 1.062 1.7l3.84-2.4a1 1 0 0 0 .469-.858V7a1 1 0 0 0-1-1Z" fill="#de0101" opacity="1" data-original="#de0101"></path></g></svg>