<svg width="924" height="300" viewBox="0 0 924 300" fill="none" xmlns="http://www.w3.org/2000/svg">
<g clip-path="url(#clip0_63_28)">
<mask id="mask0_63_28" style="mask-type:luminance" maskUnits="userSpaceOnUse" x="0" y="0" width="924" height="300">
<path d="M477.858 96.2532C477.332 137.775 514.862 160.948 543.135 174.724C572.184 188.86 581.941 197.924 581.83 210.564C581.608 229.911 558.657 238.448 537.176 238.781C499.7 239.363 477.914 228.664 460.59 220.57L447.091 283.74C464.47 291.751 496.651 298.736 530.024 299.041C608.357 299.041 659.608 260.374 659.885 200.419C660.19 124.332 554.638 120.119 555.359 86.1083C555.608 75.797 565.448 64.7928 587.013 61.9933C597.685 60.5796 627.15 59.4986 660.55 74.8823L673.661 13.7633C655.699 7.22173 632.61 0.957364 603.866 0.957364C530.135 0.957364 478.274 40.1512 477.858 96.2532ZM799.641 6.22385C785.338 6.22385 773.281 14.5671 767.904 27.373L656.005 294.551H734.281L749.859 251.504H845.515L854.551 294.551H923.542L863.338 6.22385H799.641ZM810.59 84.1125L833.18 192.381H771.313L810.59 84.1125ZM382.951 6.22385L321.249 294.551H395.84L457.513 6.22385H382.951ZM272.604 6.22385L194.964 202.47L163.56 35.6053C159.873 16.9786 145.321 6.22385 129.161 6.22385H2.23873L0.4646 14.5948C26.5199 20.2493 56.1231 29.3687 74.0569 39.1256C85.0334 45.0851 88.1655 50.2961 91.7689 64.4602L151.253 294.551H230.084L350.936 6.22385H272.604Z" fill="white"/>
</mask>
<g mask="url(#mask0_63_28)">
<path d="M-96.1987 36.557L813.306 -298.392L1020.21 263.45L110.719 598.399" fill="url(#paint0_linear_63_28)"/>
</g>
</g>
<defs>
<linearGradient id="paint0_linear_63_28" x1="84.081" y1="289.981" x2="862.037" y2="3.47131" gradientUnits="userSpaceOnUse">
<stop stop-color="#222357"/>
<stop offset="1" stop-color="#254AA5"/>
</linearGradient>
<clipPath id="clip0_63_28">
<rect width="924" height="300" fill="white"/>
</clipPath>
</defs>
</svg>
