<svg width="43" height="35" viewBox="0 0 43 35" fill="none" xmlns="http://www.w3.org/2000/svg">
<g clip-path="url(#clip0_1_1007)">
<path d="M35.2083 17.5C35.2083 18.0194 35.002 18.5175 34.6347 18.8848C34.2675 19.252 33.7693 19.4584 33.25 19.4584C32.7306 19.4584 32.2325 19.252 31.8652 18.8848C31.4979 18.5175 31.2916 18.0194 31.2916 17.5C31.2916 16.9806 31.4979 16.4825 31.8652 16.1153C32.2325 15.748 32.7306 15.5417 33.25 15.5417C33.7693 15.5417 34.2675 15.748 34.6347 16.1153C35.002 16.4825 35.2083 16.9806 35.2083 17.5Z" fill="#DE0101"/>
<path fill-rule="evenodd" clip-rule="evenodd" d="M17.4736 0.364563H23.568C27.1674 0.364563 30.0187 0.364563 32.2493 0.664188C34.5444 0.973605 36.4029 1.62377 37.8697 3.0886C39.6792 4.90006 40.2569 7.32448 40.4664 10.4715C41.5964 10.967 42.4502 12.0186 42.5423 13.3503C42.552 13.4697 42.552 13.597 42.552 13.7145V21.2854C42.552 21.4029 42.552 21.5302 42.5442 21.6477C42.4502 22.9794 41.5964 24.033 40.4664 24.5304C40.2569 27.6755 39.6792 30.0999 37.8697 31.9114C36.4029 33.3762 34.5444 34.0264 32.2493 34.3358C30.0168 34.6354 27.1674 34.6354 23.568 34.6354H17.4736C13.8742 34.6354 11.0229 34.6354 8.79233 34.3358C6.49717 34.0264 4.63871 33.3762 3.17192 31.9114C1.70708 30.4446 1.05692 28.5861 0.747501 26.2909C0.447876 24.0584 0.447876 21.2091 0.447876 17.6096V17.3903C0.447876 13.7909 0.447876 10.9396 0.747501 8.70902C1.05692 6.41386 1.70708 4.5554 3.17192 3.0886C4.63871 1.62377 6.49717 0.973605 8.79233 0.664188C11.0248 0.364563 13.8742 0.364563 17.4736 0.364563ZM37.4956 24.8437H33.7004C29.4997 24.8437 25.9042 21.6556 25.9042 17.5C25.9042 13.3444 29.4998 10.1562 33.6984 10.1562H37.4937C37.2704 7.53011 36.7671 6.14165 35.7899 5.1664C34.9615 4.33802 33.8257 3.8406 31.8556 3.57623C29.8444 3.30598 27.1909 3.30206 23.4563 3.30206H17.5813C13.8468 3.30206 11.1952 3.30598 9.18008 3.57623C7.21196 3.8406 6.07613 4.33802 5.24775 5.1664C4.41938 5.99477 3.92196 7.13061 3.65758 9.10069C3.38733 11.1139 3.38342 13.7654 3.38342 17.5C3.38342 21.2345 3.38733 23.8881 3.65758 25.9012C3.92196 27.8694 4.41938 29.0052 5.24775 29.8336C6.07613 30.6619 7.21196 31.1594 9.18204 31.4237C11.1952 31.694 13.8468 31.6979 17.5813 31.6979H23.4563C27.1909 31.6979 29.8444 31.694 31.8576 31.4237C33.8257 31.1594 34.9615 30.6619 35.7899 29.8336C36.7671 28.8583 37.2724 27.4718 37.4956 24.8437ZM8.28121 9.66665C8.28121 9.27711 8.43595 8.90353 8.7114 8.62808C8.98684 8.35264 9.36042 8.1979 9.74996 8.1979H17.5833C17.9728 8.1979 18.3464 8.35264 18.6219 8.62808C18.8973 8.90353 19.052 9.27711 19.052 9.66665C19.052 10.0562 18.8973 10.4298 18.6219 10.7052C18.3464 10.9807 17.9728 11.1354 17.5833 11.1354H9.74996C9.36042 11.1354 8.98684 10.9807 8.7114 10.7052C8.43595 10.4298 8.28121 10.0562 8.28121 9.66665ZM38.9761 13.0937H33.7004C30.9117 13.0937 28.8417 15.1676 28.8417 17.5C28.8417 19.8324 30.9117 21.9062 33.6984 21.9062H39.0212C39.4246 21.8808 39.5989 21.6086 39.6126 21.4441V13.5559C39.5989 13.3914 39.4246 13.1192 39.0212 13.0957L38.9761 13.0937Z" fill="#DE0101"/>
</g>
<defs>
<clipPath id="clip0_1_1007">
<rect width="43" height="35" fill="white"/>
</clipPath>
</defs>
</svg>
