<svg width="25" height="25" viewBox="0 0 25 25" fill="none" xmlns="http://www.w3.org/2000/svg">
<path d="M22.7083 14.5843C22.2769 16.6912 21.2045 18.6132 19.638 20.0868C18.0715 21.5604 16.0877 22.5135 13.9583 22.8155V20.7062C15.531 20.4257 16.9902 19.6996 18.1623 18.6142C19.3345 17.5289 20.1704 16.1298 20.5708 14.5833L22.7083 14.5843ZM4.42917 14.5843C4.82522 16.113 5.64695 17.4978 6.79885 18.578C7.95075 19.6582 9.38553 20.3893 10.9365 20.6864V22.801C8.82804 22.4797 6.86883 21.5196 5.32304 20.0502C3.77726 18.5808 2.71924 16.6727 2.29167 14.5833H4.42917V14.5843ZM18.75 11.4583V13.5416H17.7083C16.6393 13.5416 15.6112 13.9525 14.8367 14.6892C14.0621 15.426 13.6003 16.4323 13.5469 17.4999L13.5417 17.7083V18.7499H11.4583V17.7083C11.4583 16.6393 11.0475 15.6111 10.3107 14.8366C9.57395 14.062 8.56767 13.6002 7.5 13.5468L7.29167 13.5416H6.25V11.4583H18.75ZM12.5 2.08325C17.901 2.08325 22.3427 6.19471 22.8646 11.4583H20.7688C20.5146 9.4446 19.5343 7.59291 18.0119 6.25062C16.4895 4.90833 14.5296 4.16771 12.5 4.16771C10.4704 4.16771 8.51049 4.90833 6.9881 6.25062C5.46571 7.59291 4.48545 9.4446 4.23125 11.4583H2.13438C2.65729 6.19471 7.09896 2.08325 12.5 2.08325Z" fill="#DE0101"/>
</svg>
