<svg width="180" height="125" viewBox="0 0 180 125" fill="none" xmlns="http://www.w3.org/2000/svg">
<path d="M0 0.75V12H106.875V96.375H72.2475C69.7387 86.7056 61.0425 79.5 50.625 79.5C40.2075 79.5 31.5113 86.7056 29.0025 96.375H22.5V68.25H11.25V107.625H29.0025C31.5113 117.294 40.2075 124.5 50.625 124.5C61.0425 124.5 69.7387 117.294 72.2475 107.625H119.003C121.511 117.294 130.208 124.5 140.625 124.5C151.042 124.5 159.739 117.294 162.247 107.625H180V61.7475L179.646 60.8644L168.396 27.1144L167.175 23.25H118.125V0.75H0ZM5.625 23.25V34.5H56.25V23.25H5.625ZM118.125 34.5H159.081L168.75 63.3281V96.375H162.247C159.739 86.7056 151.042 79.5 140.625 79.5C130.208 79.5 121.511 86.7056 119.003 96.375H118.125V34.5ZM11.25 45.75V57H45V45.75H11.25ZM50.625 90.75C56.9081 90.75 61.875 95.7169 61.875 102C61.875 108.283 56.9081 113.25 50.625 113.25C44.3419 113.25 39.375 108.283 39.375 102C39.375 95.7169 44.3419 90.75 50.625 90.75ZM140.625 90.75C146.908 90.75 151.875 95.7169 151.875 102C151.875 108.283 146.908 113.25 140.625 113.25C134.342 113.25 129.375 108.283 129.375 102C129.375 95.7169 134.342 90.75 140.625 90.75Z" fill="url(#paint0_linear_1_283)"/>
<defs>
<linearGradient id="paint0_linear_1_283" x1="90" y1="0.75" x2="90" y2="124.5" gradientUnits="userSpaceOnUse">
<stop stop-color="#FBFBFB"/>
<stop offset="1" stop-color="#959595"/>
</linearGradient>
</defs>
</svg>
