<svg width="132" height="170" viewBox="0 0 132 170" fill="none" xmlns="http://www.w3.org/2000/svg">
<path d="M66.0002 127.3C61.2738 127.301 56.7205 125.522 53.247 122.316C49.7735 119.111 47.6347 114.715 47.2566 110.004C34.7188 105.566 24.1519 96.8413 17.4212 85.37C10.6906 73.8987 8.22894 60.4183 10.4709 47.3085C12.7128 34.1987 19.5141 22.3024 29.6743 13.7196C39.8344 5.13682 52.7001 0.419362 66.0002 0.399994C80.1462 0.397944 93.7765 5.71181 104.188 15.288C114.6 24.8641 121.033 38.0032 122.212 52.1C122.251 52.7115 122.163 53.3244 121.953 53.8999C121.742 54.4754 121.415 55.0008 120.99 55.4428C120.566 55.8848 120.054 56.2337 119.488 56.4674C118.922 56.701 118.313 56.8143 117.7 56.8C116.441 56.7684 115.239 56.2699 114.327 55.4013C113.415 54.5327 112.858 53.356 112.765 52.1C111.928 43.7888 108.891 35.851 103.967 29.1036C99.0423 22.3562 92.4087 17.0431 84.7488 13.7112C77.0888 10.3794 68.6793 9.14917 60.3859 10.1473C52.0926 11.1454 44.215 14.3357 37.5643 19.3899C30.9136 24.444 25.7301 31.1793 22.5473 38.9024C19.3645 46.6255 18.2975 55.0573 19.4562 63.3297C20.6148 71.6022 23.9572 79.4164 29.1393 85.9679C34.3214 92.5194 41.1559 97.5715 48.9392 100.604C50.3554 97.5438 52.5686 94.9209 55.3469 93.0101C58.1252 91.0992 61.3663 89.9707 64.7306 89.743C68.0948 89.5151 71.4585 90.1964 74.469 91.7153C77.4795 93.2341 80.0261 95.5348 81.8419 98.3761C83.6578 101.217 84.676 104.495 84.7899 107.865C84.9038 111.235 84.1093 114.574 82.4895 117.531C80.8697 120.488 78.4843 122.956 75.5832 124.675C72.6821 126.393 69.3722 127.3 66.0002 127.3ZM19.0848 103.8H19.9402C25.4895 109.244 31.9596 113.661 39.0504 116.847C41.1343 123.723 45.7638 129.544 51.9939 133.122C58.224 136.7 65.5848 137.765 72.5736 136.1C79.5624 134.435 85.6522 130.165 89.5998 124.162C93.5473 118.16 95.0549 110.877 93.8148 103.8H113C117.986 103.8 122.768 105.781 126.294 109.306C129.819 112.832 131.8 117.614 131.8 122.6C131.8 138.495 123.97 150.48 111.731 158.292C99.6804 165.972 83.4372 169.6 66.0002 169.6C48.5632 169.6 32.32 165.972 20.2692 158.292C8.0304 150.49 0.200195 138.486 0.200195 122.6C0.200195 112.138 8.68839 103.8 19.0848 103.8ZM103.6 56.8C103.602 63.1604 101.991 69.4174 98.9165 74.9855C95.8423 80.5536 91.4058 85.2509 86.0222 88.6378C83.4003 85.9953 80.2812 83.8981 76.8448 82.4671C73.4084 81.036 69.7227 80.2995 66.0002 80.3C62.2777 80.2995 58.592 81.036 55.1556 82.4671C51.7192 83.8981 48.6001 85.9953 45.9782 88.6378C38.8381 84.1476 33.4152 77.3871 30.581 69.443C29.1351 65.3847 28.3975 61.1081 28.4002 56.8C28.4002 46.8279 32.3616 37.2641 39.413 30.2128C46.4643 23.1614 56.0281 19.2 66.0002 19.2C75.9723 19.2 85.536 23.1614 92.5874 30.2128C99.6388 37.2641 103.6 46.8279 103.6 56.8Z" fill="url(#paint0_linear_1_277)"/>
<defs>
<linearGradient id="paint0_linear_1_277" x1="66.0002" y1="0.399994" x2="66.0002" y2="169.6" gradientUnits="userSpaceOnUse">
<stop stop-color="#FBFBFB"/>
<stop offset="1" stop-color="#959595"/>
</linearGradient>
</defs>
</svg>
